<?xml version="1.0" encoding="UTF-8" standalone="no"?><!DOCTYPE svg PUBLIC "-//W3C//DTD SVG 1.1//EN" "http://www.w3.org/Graphics/SVG/1.1/DTD/svg11.dtd"><svg width="100%" height="100%" viewBox="0 0 24 24" version="1.1" xmlns="http://www.w3.org/2000/svg" xmlns:xlink="http://www.w3.org/1999/xlink" xml:space="preserve" xmlns:serif="http://www.serif.com/" style="fill-rule:evenodd;clip-rule:evenodd;stroke-linejoin:round;stroke-miterlimit:2;"><path d="M3,6c0,-0.549 0.451,-1 1,-1l5,0c0.549,0 1,0.451 1,1l0,5c0,0.549 -0.451,1 -1,1l-5,0c-0.549,0 -1,-0.451 -1,-1l0,-5Zm1.5,4.5l0,-4l4,0l0,4l-4,0Z" style="fill:#0d6efd;"/><path d="M12.75,5.5c-0.411,0 -0.75,0.339 -0.75,0.75c0,0.411 0.339,0.75 0.75,0.75l7.5,0c0.411,0 0.75,-0.339 0.75,-0.75c0,-0.411 -0.339,-0.75 -0.75,-0.75l-7.5,0Zm0,6c-0.411,0 -0.75,0.339 -0.75,0.75c0,0.411 0.339,0.75 0.75,0.75l7.5,0c0.411,0 0.75,-0.339 0.75,-0.75c0,-0.411 -0.339,-0.75 -0.75,-0.75l-7.5,0Zm0,6c-0.411,0 -0.75,0.339 -0.75,0.75c0,0.411 0.339,0.75 0.75,0.75l7.5,0c0.411,0 0.75,-0.339 0.75,-0.75c0,-0.411 -0.339,-0.75 -0.75,-0.75l-7.5,0Zm-2.97,-2.53c0.291,0.291 0.291,0.769 0,1.06l-3.5,3.5c-0.291,0.291 -0.769,0.291 -1.06,0l-2,-2c-0.152,-0.142 -0.239,-0.341 -0.239,-0.549c0,-0.411 0.339,-0.75 0.75,-0.75c0.208,0 0.407,0.087 0.549,0.239l1.47,1.47l2.97,-2.97c0.291,-0.291 0.769,-0.291 1.06,0Z" style="fill:#0d6efd;fill-rule:nonzero;"/></svg>